<?xml version="1.0" encoding="UTF-8"?>
<svg width="23px" height="22px" viewBox="0 0 23 22" version="1.1" xmlns="http://www.w3.org/2000/svg" xmlns:xlink="http://www.w3.org/1999/xlink">
    <title>icon_google</title>
    <g id="Sign-in" stroke="none" stroke-width="1" fill="none" fill-rule="evenodd">
        <g id="Sign-In-[Desktop]" transform="translate(-284.000000, -643.000000)" fill-rule="nonzero">
            <g id="Social-sign-in" transform="translate(144.000000, 590.000000)">
                <g id="Google" transform="translate(0.000000, 36.000000)">
                    <g id="icon_google" transform="translate(140.000000, 17.000000)">
                        <path d="M5.21443981,13.2353778 L4.39544143,16.1167912 L1.40202119,16.1764706 C0.507427905,14.6127239 0,12.8235988 0,10.9223475 C0,9.08385054 0.474432684,7.35011725 1.31539724,5.82352941 L1.3160406,5.82352941 L3.98102512,6.28398735 L5.14844937,8.7804732 C4.9041101,9.45180112 4.7709344,10.1724576 4.7709344,10.9223475 C4.77102631,11.7362043 4.92745491,12.5159772 5.21443981,13.2353778 Z" id="Path" fill="#FBBB00"></path>
                        <path d="M21.9634082,9.05882353 C22.0935234,9.74719589 22.1613692,10.458105 22.1613692,11.184661 C22.1613692,11.9993639 22.0760862,12.7940637 21.9136192,13.5606258 C21.3620899,16.1691597 19.9209529,18.4469316 17.9245692,20.0588235 L17.9239496,20.0582012 L14.6912497,19.8925313 L14.2337221,17.0238687 C15.5584191,16.2435711 16.5936761,15.0224503 17.1390095,13.5606258 L11.0806846,13.5606258 L11.0806846,9.05882353 L17.2273905,9.05882353 L21.9634082,9.05882353 L21.9634082,9.05882353 Z" id="Path" fill="#518EF8"></path>
                        <path d="M18.2499243,19.6592166 L18.2505393,19.6597979 C16.3232203,21.1239501 13.8749175,22 11.2097689,22 C6.92684255,22 3.20316428,19.7374835 1.30360995,16.407921 L4.94821151,13.5882353 C5.89796671,15.9839093 8.34315033,17.6892981 11.2097689,17.6892981 C12.4419158,17.6892981 13.59626,17.3744865 14.5867836,16.8249156 L18.2499243,19.6592166 Z" id="Path" fill="#28B446"></path>
                        <path d="M18.2505393,2.58487694 L14.6539896,5.56273097 C13.6420223,4.92300288 12.4457889,4.55344652 11.1642093,4.55344652 C8.27037735,4.55344652 5.81147235,6.43749972 4.92088905,9.05882353 L1.30421709,6.06430306 L1.30360995,6.06430306 C3.15130142,2.46150144 6.87348513,0 11.1642093,0 C13.8579462,0 16.3278231,0.97042533 18.2505393,2.58487694 Z" id="Path" fill="#F14336"></path>
                    </g>
                </g>
            </g>
        </g>
    </g>
</svg>