<?xml version="1.0" encoding="UTF-8"?>
<svg width="22px" height="22px" viewBox="0 0 22 22" version="1.1" xmlns="http://www.w3.org/2000/svg" xmlns:xlink="http://www.w3.org/1999/xlink">
    <title>icon_facebook</title>
    <g id="Sign-in" stroke="none" stroke-width="1" fill="none" fill-rule="evenodd">
        <g id="Sign-In-[Desktop]" transform="translate(-296.000000, -715.000000)" fill="#3B5998" fill-rule="nonzero">
            <g id="Social-sign-in" transform="translate(144.000000, 590.000000)">
                <g id="facebook" transform="translate(0.000000, 108.000000)">
                    <path d="M163,17 C169.075132,17 174,21.9248678 174,28 C174,34.0751322 169.075132,39 163,39 C156.924868,39 152,34.0751322 152,28 C152,21.9248678 156.924868,17 163,17 Z M164.193332,21 C161.871112,21 161.343453,22.8711255 161.343453,24.0660492 L161.343453,24.0660492 L161.343453,25.737019 L160,25.737019 L160,28.3192082 L161.343453,28.3192082 L161.343453,35.6666667 L164.168188,35.6666667 L164.168188,28.3192082 L166.032595,28.3192082 L166.279382,25.7394232 L164.168374,25.7394232 L164.168374,24.2197223 C164.168374,23.6497093 164.518532,23.5158714 164.767554,23.5158714 L164.767554,23.5158714 L166.285714,23.5158714 L166.285714,21.0094167 Z" id="icon_facebook"></path>
                </g>
            </g>
        </g>
    </g>
</svg>