<?xml version="1.0" encoding="UTF-8"?>
<svg width="22px" height="22px" viewBox="0 0 22 22" version="1.1" xmlns="http://www.w3.org/2000/svg" xmlns:xlink="http://www.w3.org/1999/xlink">
    <title>icon_google</title>
    <g id="Sign-in" stroke="none" stroke-width="1" fill="none" fill-rule="evenodd">
        <g id="Sign-In-[Mobile]" transform="translate(-123.000000, -516.000000)" fill-rule="nonzero">
            <g id="Social-sign-in" transform="translate(17.000000, 467.000000)">
                <g id="Google" transform="translate(0.000000, 36.000000)">
                    <g id="icon_google" transform="translate(106.000000, 13.000000)">
                        <path d="M4.98772504,13.2353778 L4.20433528,16.1167912 L1.34106374,16.1764706 C0.485365822,14.6127239 0,12.8235988 0,10.9223475 C0,9.08385054 0.453805176,7.35011725 1.25820606,5.82352941 L1.25882145,5.82352941 L3.80793707,6.28398735 L4.92460374,8.7804732 C4.69088792,9.45180112 4.56350247,10.1724576 4.56350247,10.9223475 C4.56359038,11.7362043 4.71321774,12.5159772 4.98772504,13.2353778 Z" id="Path" fill="#FBBB00"></path>
                        <path d="M21.0084774,9.05882353 C21.1329354,9.74719589 21.1978314,10.458105 21.1978314,11.184661 C21.1978314,11.9993639 21.1162563,12.7940637 20.9608531,13.5606258 C20.4333033,16.1691597 19.0548246,18.4469316 17.1452401,20.0588235 L17.1446474,20.0582012 L14.0524997,19.8925313 L13.6148646,17.0238687 C14.8819661,16.2435711 15.872212,15.0224503 16.3938351,13.5606258 L10.5989157,13.5606258 L10.5989157,9.05882353 L16.4783735,9.05882353 L21.0084774,9.05882353 L21.0084774,9.05882353 Z" id="Path" fill="#518EF8"></path>
                        <path d="M17.4564493,19.6592166 L17.4570376,19.6597979 C15.6135151,21.1239501 13.2716603,22 10.7223876,22 C6.62567548,22 3.06389627,19.7374835 1.24693126,16.407921 L4.73307188,13.5882353 C5.64153338,15.9839093 7.98040466,17.6892981 10.7223876,17.6892981 C11.9009629,17.6892981 13.0051183,17.3744865 13.9525757,16.8249156 L17.4564493,19.6592166 Z" id="Path" fill="#28B446"></path>
                        <path d="M17.4570376,2.58487694 L14.0168596,5.56273097 C13.0488909,4.92300288 11.9046676,4.55344652 10.6788089,4.55344652 C7.91079573,4.55344652 5.55879964,6.43749972 4.70693735,9.05882353 L1.247512,6.06430306 L1.24693126,6.06430306 C3.01428832,2.46150144 6.57463795,0 10.6788089,0 C13.2554268,0 15.6179177,0.97042533 17.4570376,2.58487694 Z" id="Path" fill="#F14336"></path>
                    </g>
                </g>
            </g>
        </g>
    </g>
</svg>