<?xml version="1.0" encoding="UTF-8"?>
<svg width="22px" height="22px" viewBox="0 0 22 22" version="1.1" xmlns="http://www.w3.org/2000/svg" xmlns:xlink="http://www.w3.org/1999/xlink">
    <title>icon_facebook</title>
    <g id="Sign-in" stroke="none" stroke-width="1" fill="none" fill-rule="evenodd">
        <g id="Sign-In-[Mobile]" transform="translate(-134.000000, -588.000000)" fill="#3B5998" fill-rule="nonzero">
            <g id="Social-sign-in" transform="translate(17.000000, 467.000000)">
                <g id="facebook" transform="translate(0.000000, 108.000000)">
                    <path d="M128,13 C134.075132,13 139,17.9248678 139,24 C139,30.0751322 134.075132,35 128,35 C121.924868,35 117,30.0751322 117,24 C117,17.9248678 121.924868,13 128,13 Z M129.193332,17 C126.871112,17 126.343453,18.8711255 126.343453,20.0660492 L126.343453,20.0660492 L126.343453,21.737019 L125,21.737019 L125,24.3192082 L126.343453,24.3192082 L126.343453,31.6666667 L129.168188,31.6666667 L129.168188,24.3192082 L131.032595,24.3192082 L131.279382,21.7394232 L129.168374,21.7394232 L129.168374,20.2197223 C129.168374,19.6497093 129.518532,19.5158714 129.767554,19.5158714 L129.767554,19.5158714 L131.285714,19.5158714 L131.285714,17.0094167 Z" id="icon_facebook"></path>
                </g>
            </g>
        </g>
    </g>
</svg>